%
M48
M72
T01C0.0315
T02C0.0320
T03C0.0394
T04C0.0400
T05C0.1102
T06C0.1181
T07C0.1260
T08C0.1300
%
T01
X35299Y11850
X36061Y12450
X35299Y13050
X36061Y13550
X35299Y19850
X36061Y20450
X35299Y21050
X36061Y21550
X35299Y27850
X36061Y28450
X35299Y29050
X36061Y29550
X35299Y35850
X36061Y36450
X35299Y37050
X36061Y37550
X35299Y43850
X36061Y44450
X35299Y45050
X36061Y45550
X3330Y45081
X3930Y44319
X4530Y45081
X5030Y44319
X3330Y37081
X3930Y36319
X4530Y37081
X5030Y36319
X3330Y29081
X3930Y28319
X4530Y29081
X5030Y28319
X3330Y21081
X3930Y20319
X4530Y21081
X5030Y20319
X3330Y13081
X3930Y12319
X4530Y13081
X5030Y12319
T02
X26680Y26700
X26680Y27700
X26680Y28700
X26680Y29700
X26680Y30700
X26680Y31700
X26680Y32700
X26680Y33700
X26680Y34700
X26680Y35700
X26680Y36700
X26680Y37700
X26680Y38700
X26680Y39700
X23680Y39700
X23680Y38700
X23680Y37700
X23680Y36700
X23680Y35700
X23680Y34700
X23680Y33700
X23680Y32700
X23680Y31700
X23680Y30700
X23680Y29700
X23680Y28700
X23680Y27700
X23680Y26700
X22180Y39700
X22180Y36700
X14680Y39700
X14680Y38700
X14680Y37700
X14680Y36700
X14680Y35700
X14680Y34700
X14680Y33700
X14680Y32700
X14680Y31700
X14680Y30700
X14680Y29700
X14680Y28700
X14680Y27700
X14680Y26700
X17680Y26700
X17680Y27700
X17680Y28700
X17680Y29700
X17680Y30700
X17680Y31700
X17680Y32700
X17680Y33700
X17680Y34700
X17680Y35700
X17680Y36700
X17680Y37700
X17680Y38700
X17680Y39700
X19180Y26700
X19180Y29700
X33680Y11200
X32680Y11200
X33680Y13700
X32680Y13700
X33680Y16200
X32680Y16200
X33680Y18700
X32680Y18700
X33680Y21200
X32680Y21200
X33680Y23700
X32680Y23700
X33680Y26200
X32680Y26200
X33680Y28700
X32680Y28700
X33680Y31200
X32680Y31200
X33680Y33700
X32680Y33700
X33680Y36200
X32680Y36200
X33680Y38700
X32680Y38700
X33680Y41200
X32680Y41200
X33680Y43700
X32680Y43700
X33680Y46200
X32680Y46200
X33680Y48700
X32680Y48700
X6180Y48700
X7180Y48700
X6180Y46200
X7180Y46200
X6180Y43700
X7180Y43700
X6180Y41200
X7180Y41200
X6180Y38700
X7180Y38700
X6180Y36200
X7180Y36200
X6180Y33700
X7180Y33700
X6180Y31200
X7180Y31200
X6180Y28700
X7180Y28700
X6180Y26200
X7180Y26200
X6180Y23700
X7180Y23700
X6180Y21200
X7180Y21200
X6180Y18700
X7180Y18700
X6180Y16200
X7180Y16200
X6180Y13700
X7180Y13700
X6180Y11200
X7180Y11200
X19180Y31200
X19180Y34200
X10680Y41200
X11680Y41200
X11180Y38200
X11180Y39200
T03
X10680Y23700
X29680Y22700
X10680Y24700
X10680Y25700
X10680Y26700
X10680Y27700
X10680Y22700
X10680Y21700
X10680Y20700
X10680Y19100
X10680Y18100
X10680Y17100
X10680Y16100
X10680Y15100
X10680Y14100
X10680Y13100
X10680Y12100
X29680Y23700
X29680Y24700
X29680Y25700
X29680Y26700
X29680Y27700
X29680Y20700
X29680Y19700
X29680Y18700
X29680Y17700
X29680Y16700
X29680Y15700
T04
X23340Y15700
X22260Y15700
X21180Y15700
X20100Y15700
X19020Y15700
X22800Y14700
X21720Y14700
X20640Y14700
X19560Y14700
X19020Y44200
X20100Y44200
X21180Y44200
X22260Y44200
X23340Y44200
X19560Y45200
X20640Y45200
X21720Y45200
X22800Y45200
X38180Y20700
X37180Y20700
X38180Y21700
X37180Y21700
X38180Y22700
X37180Y22700
X38180Y23700
X37180Y23700
X38180Y24700
X37180Y24700
X38180Y25700
X37180Y25700
X38180Y26700
X37180Y26700
X38180Y27700
X37180Y27700
X38180Y28700
X37180Y28700
X38180Y29700
X37180Y29700
X38180Y30700
X37180Y30700
X38180Y31700
X37180Y31700
X38180Y32700
X37180Y32700
X38180Y33700
X37180Y33700
X38180Y34700
X37180Y34700
X38180Y35700
X37180Y35700
X1180Y35700
X2180Y35700
X1180Y34700
X2180Y34700
X1180Y33700
X2180Y33700
X1180Y32700
X2180Y32700
X1180Y31700
X2180Y31700
X1180Y30700
X2180Y30700
X1180Y29700
X2180Y29700
X1180Y28700
X2180Y28700
X1180Y27700
X2180Y27700
X1180Y26700
X2180Y26700
X1180Y25700
X2180Y25700
X1180Y24700
X2180Y24700
X1180Y23700
X2180Y23700
X1180Y22700
X2180Y22700
X1180Y21700
X2180Y21700
X1180Y20700
X2180Y20700
X13680Y23700
X12680Y23700
X13680Y22700
X12680Y22700
X13680Y21700
X12680Y21700
X13680Y20700
X12680Y20700
X28680Y27700
X28680Y26700
X28680Y25700
X28680Y24700
X28680Y23700
X28680Y22700
X28680Y20700
X28680Y19700
X28680Y18700
X28680Y17700
X28680Y16700
X28680Y15700
X12180Y36700
X11180Y36700
X10180Y36700
X30070Y14480
X28290Y14480
X30070Y11920
X28290Y11920
X21074Y30700
X21074Y29700
X20180Y39700
X20180Y38700
X20180Y37700
T05
X12180Y46913
X10290Y45574
T06
X2180Y47594
X2180Y16200
X37680Y15700
X37680Y47594
T07
X12180Y44452
T08
X16250Y15200
X26110Y15200
X16250Y44700
X26110Y44700
X11180Y30800
M30
